<?xml version="1.0" standalone="no"?>
<!DOCTYPE svg PUBLIC "-//W3C//DTD SVG 20010904//EN"
 "http://www.w3.org/TR/2001/REC-SVG-20010904/DTD/svg10.dtd">
<svg version="1.0" xmlns="http://www.w3.org/2000/svg"
 width="78.000000pt" height="71.000000pt" viewBox="0 0 78.000000 71.000000"
 preserveAspectRatio="xMidYMid meet">
<metadata>
Created by potrace 1.10, written by Peter Selinger 2001-2011
</metadata>
<g transform="translate(0.000000,71.000000) scale(0.100000,-0.100000)"
fill="#000000" stroke="none">
<path d="M250 608 c-43 -12 -78 -43 -96 -85 -19 -45 -18 -153 2 -181 14 -21
14 -26 -1 -67 -25 -63 -14 -110 36 -157 39 -38 41 -38 121 -38 61 0 86 4 100
16 16 16 21 15 64 -3 34 -15 55 -18 80 -13 81 18 115 67 122 176 4 58 1 73
-13 88 -18 17 -18 20 0 68 15 42 16 56 6 89 -22 73 -72 109 -153 110 -83 2
-93 0 -116 -21 -12 -12 -22 -17 -22 -12 0 6 -8 12 -17 15 -10 3 -31 10 -48 15
-18 5 -44 5 -65 0z m101 -49 c38 -27 56 -84 40 -130 -18 -52 -49 -69 -142 -75
l-81 -6 3 87 c4 83 5 88 37 116 40 36 99 40 143 8z m246 4 c35 -23 55 -75 47
-119 -19 -100 -176 -119 -212 -26 -6 15 -12 57 -14 95 l-4 67 78 0 c57 0 86
-5 105 -17z m-162 -200 c26 -35 -26 -72 -54 -39 -14 17 -5 43 17 49 10 3 19 5
21 6 2 0 9 -7 16 -16z m217 -88 c-5 -117 -39 -165 -116 -165 -90 0 -145 94
-99 171 9 15 24 31 32 35 23 10 110 22 150 20 l35 -1 -2 -60z m-290 27 c29
-27 32 -35 37 -110 l6 -82 -82 0 c-76 0 -85 2 -114 28 -24 21 -32 38 -36 75
-5 43 -3 49 30 82 30 30 42 35 81 35 36 0 52 -6 78 -28z"/>
</g>
</svg>
